<svg xmlns="http://www.w3.org/2000/svg" width="24" height="24" viewBox="0 0 24 24">
  <g fill="none" fill-rule="evenodd">
    <rect width="24" height="24" fill="#DC312E" rx="12"/>
    <path fill="#FFFFFF" d="M11.573,1.7 L10.177,0.3 C10.1300979,0.25297915 10.0664136,0.226553108 10,0.226553108 C9.93358637,0.226553108 9.86990213,0.25297915 9.823,0.3 L3.927,6.2 C3.88009787,6.24702085 3.81641363,6.27344689 3.75,6.27344689 C3.68358637,6.27344689 3.61990213,6.24702085 3.573,6.2 L2.177,4.8 C2.13009787,4.75297915 2.06641363,4.72655311 2,4.72655311 C1.93358637,4.72655311 1.86990213,4.75297915 1.823,4.8 L0.427,6.2 C0.329404515,6.29762496 0.329404515,6.45587504 0.427,6.5535 L3.573,9.7 C3.61990213,9.74702085 3.68358637,9.77344689 3.75,9.77344689 C3.81641363,9.77344689 3.88009787,9.74702085 3.927,9.7 L11.573,2.05 C11.6682857,1.95278912 11.6682857,1.79721088 11.573,1.7 Z" transform="translate(6 7)"/>
  </g>
</svg>
